<?xml version="1.0" standalone="no"?>
<!DOCTYPE svg PUBLIC "-//W3C//DTD SVG 20010904//EN"
 "http://www.w3.org/TR/2001/REC-SVG-20010904/DTD/svg10.dtd">
<svg version="1.0" xmlns="http://www.w3.org/2000/svg"
 width="960.000000pt" height="1280.000000pt" viewBox="0 0 960.000000 1280.000000"
 preserveAspectRatio="xMidYMid meet">

<g transform="translate(0.000000,1280.000000) scale(0.100000,-0.100000)"
fill="#000000" stroke="none">
<path d="M1135 12788 c2 -7 11 -71 20 -143 9 -71 23 -155 31 -185 9 -30 20
-73 26 -95 5 -22 14 -49 19 -60 11 -25 38 -151 47 -225 12 -92 8 -479 -5 -560
-7 -41 -22 -154 -33 -250 -29 -254 -41 -341 -52 -378 -10 -32 4 -92 21 -92 10
0 155 -123 209 -176 26 -26 63 -56 82 -69 19 -12 62 -51 95 -86 80 -84 245
-246 347 -339 258 -237 286 -267 294 -317 5 -32 2 -50 -11 -69 -25 -39 -47
-33 -235 53 -30 14 -57 29 -60 33 -3 3 -45 26 -95 50 -49 25 -92 47 -95 50
-11 12 -329 160 -345 160 -4 0 -21 6 -38 14 -18 8 -97 40 -177 71 -142 55
-169 65 -320 119 -41 15 -84 31 -95 36 -56 23 -142 53 -245 86 -63 20 -128 42
-143 50 -16 8 -37 14 -46 14 -10 0 -31 6 -47 14 -16 8 -65 24 -108 36 -44 12
-84 24 -90 28 -6 3 -17 7 -26 8 -8 1 -25 6 -37 9 l-23 7 0 -912 0 -913 67 7
c42 4 84 16 111 31 34 19 48 22 68 15 14 -6 27 -10 29 -10 2 0 9 19 15 43 17
68 31 97 51 108 14 7 19 21 19 51 0 28 9 56 29 88 28 46 29 51 30 181 0 107
-4 149 -21 209 -12 41 -25 80 -29 85 -16 23 -27 87 -19 115 5 18 5 44 -1 63
-5 17 -11 52 -14 77 -4 43 -2 46 31 63 19 9 43 17 54 17 30 0 59 -51 66 -116
4 -33 15 -76 25 -96 12 -24 19 -59 19 -98 0 -34 5 -104 12 -156 10 -80 9 -102
-5 -151 -32 -115 -37 -175 -23 -275 7 -48 6 -63 -12 -97 -12 -22 -20 -46 -18
-53 1 -7 1 -10 -1 -5 -10 16 -24 6 -18 -13 4 -13 2 -20 -7 -20 -19 0 -44 -70
-29 -79 15 -10 5 -51 -16 -67 -10 -7 -28 -14 -40 -14 -19 0 -23 5 -23 30 0 17
5 30 12 30 6 0 9 2 6 5 -3 3 -18 0 -34 -6 -16 -7 -35 -13 -43 -15 -20 -4 -32
-27 -21 -38 15 -15 12 -30 -3 -17 -10 8 -17 7 -26 -2 -10 -10 -79 -16 -203
-17 l-38 0 0 -138 c0 -127 3 -147 36 -267 35 -126 76 -283 94 -355 5 -19 20
-75 34 -125 14 -49 37 -135 51 -190 14 -55 30 -116 35 -135 5 -19 23 -89 40
-155 17 -66 53 -190 79 -275 27 -85 58 -189 70 -230 12 -41 27 -88 32 -105 6
-16 11 -37 12 -45 1 -8 6 -18 12 -22 6 -5 6 -11 -2 -19 -12 -12 -29 1 -76 64
-25 33 -47 59 -90 107 -33 37 -78 177 -82 255 -1 22 -7 50 -13 61 -6 12 -12
37 -13 55 -3 73 -22 186 -39 230 -11 26 -16 49 -13 52 3 3 2 11 -2 17 -6 9
-10 9 -17 -1 -7 -10 -8 -4 -4 18 3 17 -1 53 -8 80 -8 26 -17 69 -21 95 -3 25
-12 49 -19 51 -8 3 -14 18 -14 32 0 15 -5 31 -12 35 -9 6 -9 9 1 13 9 4 10 8
4 14 -11 9 -15 21 -22 68 -2 17 -12 46 -21 65 -9 19 -15 40 -14 47 1 6 -2 14
-8 18 -7 4 -10 -433 -10 -1374 l0 -1380 105 -102 c58 -57 105 -106 105 -110 0
-4 16 -25 36 -47 20 -22 35 -44 34 -48 -1 -4 2 -10 7 -13 14 -10 53 -70 53
-81 0 -5 4 -10 10 -10 5 0 17 -17 27 -37 16 -35 67 -89 214 -229 113 -108 297
-310 332 -365 11 -16 23 -29 27 -29 4 0 13 -12 18 -27 10 -28 39 -66 100 -132
49 -53 57 -63 78 -96 10 -16 29 -41 41 -54 12 -14 19 -29 16 -35 -3 -6 -2 -8
2 -3 10 9 96 -123 116 -175 7 -21 19 -38 26 -38 7 0 13 -10 13 -21 0 -12 6
-27 14 -33 18 -14 66 -103 66 -121 0 -8 5 -15 10 -15 6 0 15 -20 22 -44 6 -25
15 -43 19 -40 4 2 14 -11 22 -29 19 -39 72 -97 90 -97 6 0 32 -16 56 -35 24
-19 47 -35 50 -35 3 0 23 -16 45 -35 21 -19 42 -35 46 -35 4 0 34 -25 66 -55
33 -30 62 -55 66 -55 6 0 67 -51 110 -93 10 -9 22 -17 27 -17 5 0 19 -14 31
-30 12 -17 25 -28 30 -25 5 3 11 -3 14 -13 4 -12 37 -31 89 -52 45 -19 84 -38
85 -42 2 -4 8 -8 14 -8 5 0 23 -13 40 -30 16 -16 36 -30 44 -30 8 0 14 -5 14
-11 0 -6 11 -20 25 -31 26 -21 115 -147 115 -165 0 -6 9 -22 21 -37 13 -17 19
-36 17 -51 -6 -30 32 -61 51 -42 8 8 11 8 11 -2 0 -8 6 -11 16 -7 8 3 29 0 47
-7 18 -8 38 -12 45 -9 7 2 24 -6 38 -19 13 -12 24 -19 24 -15 0 5 7 3 15 -4 8
-7 15 -9 15 -4 0 5 4 3 9 -5 5 -8 16 -11 29 -7 21 7 130 111 257 247 85 91
220 217 375 350 52 45 147 132 210 193 113 109 346 328 444 416 91 83 332 324
412 414 81 90 176 193 195 211 6 6 27 26 47 45 21 19 90 84 155 144 181 169
254 278 241 362 -4 32 -11 44 -23 44 -13 0 -17 9 -18 37 -2 62 34 116 96 148
19 9 42 25 52 34 10 9 45 32 78 51 34 20 61 42 61 51 0 24 -42 67 -70 71 -18
2 -25 9 -26 26 -1 24 -30 62 -48 62 -6 0 -26 13 -43 29 -18 16 -34 27 -36 25
-7 -8 -122 76 -122 88 0 7 -7 13 -15 13 -61 2 -77 61 -36 129 20 33 23 48 19
101 -5 58 -4 63 26 92 41 41 83 50 126 27 37 -20 62 -14 74 18 6 18 3 30 -15
51 -27 32 -24 73 7 118 44 62 101 76 167 38 26 -15 45 -20 50 -14 4 6 16 15
27 21 11 6 27 23 35 37 13 24 13 29 -3 56 -25 43 -21 67 21 112 31 34 46 42
85 46 33 4 54 1 71 -11 36 -23 42 -21 92 27 25 23 58 50 74 60 21 14 29 28 35
64 17 113 76 203 158 240 16 7 36 26 45 43 9 16 24 30 32 30 8 0 48 32 88 70
87 83 99 90 151 90 21 0 41 4 43 9 7 20 32 15 37 -8 5 -20 23 -31 86 -56 44
-17 99 -41 122 -53 61 -32 84 -28 132 21 82 83 77 80 127 63 24 -8 44 -11 44
-6 0 11 86 99 171 175 31 28 62 59 70 70 8 11 31 32 51 46 21 14 86 70 145
125 59 56 126 116 148 135 21 19 61 55 88 82 26 26 50 47 53 47 3 0 27 22 54
50 27 27 54 50 60 50 5 0 10 7 10 15 0 8 7 15 15 15 8 0 15 7 15 15 0 8 4 15
9 15 5 0 37 29 72 64 35 36 65 63 68 60 2 -2 13 4 23 13 15 14 21 15 27 4 6
-9 11 -1 15 23 4 20 12 36 18 36 6 0 26 14 45 30 19 17 38 28 44 25 5 -4 9 5
9 19 0 14 5 26 11 26 6 0 17 7 25 15 18 17 34 20 34 5 0 -5 5 -10 10 -10 6 0
10 6 10 14 0 15 27 31 60 35 6 0 10 5 10 11 0 5 8 19 17 30 13 14 20 17 30 8
15 -12 17 -28 3 -28 -5 0 -29 -21 -52 -46 -57 -62 -134 -135 -312 -298 -49
-44 -108 -98 -130 -119 -23 -20 -44 -37 -48 -37 -3 0 -4 -9 -1 -20 4 -15 0
-20 -13 -20 -23 0 -183 -140 -357 -312 -22 -21 -47 -43 -58 -48 -10 -6 -19
-17 -19 -25 0 -8 -4 -15 -8 -15 -5 0 -48 -36 -97 -80 -49 -44 -92 -80 -97 -80
-4 0 -8 -7 -8 -15 0 -8 -4 -15 -10 -15 -5 0 -34 -23 -65 -52 -31 -28 -66 -58
-78 -66 -35 -23 -47 -43 -47 -78 0 -37 -21 -59 -50 -51 -18 5 -20 0 -20 -39 0
-36 4 -46 27 -61 45 -29 65 -54 64 -77 -6 -105 -11 -122 -36 -116 -4 0 -15
-10 -26 -24 -11 -15 -29 -26 -39 -26 -10 0 -21 -8 -23 -17 -4 -15 -5 -15 -6 2
-1 18 -3 17 -18 -5 -10 -14 -18 -27 -18 -30 -1 -15 -19 -31 -31 -26 -15 6 -53
-43 -47 -60 2 -6 -10 -23 -26 -37 -16 -13 -27 -28 -24 -31 4 -3 2 -6 -3 -6 -5
0 -18 -16 -29 -36 -16 -31 -17 -38 -5 -57 29 -46 30 -107 3 -177 -14 -36 -29
-69 -33 -75 -5 -5 -11 -31 -15 -57 -4 -25 -15 -57 -25 -70 -10 -12 -35 -43
-54 -68 -60 -75 -117 -211 -88 -210 4 1 18 7 32 15 37 21 47 18 59 -18 14 -40
13 -171 0 -214 -9 -28 -26 -40 -44 -30 -2 1 -10 -6 -17 -15 -8 -10 -33 -18
-66 -21 -55 -5 -63 -9 -124 -72 -31 -31 -38 -45 -33 -63 3 -13 1 -30 -6 -38
-6 -7 -9 -20 -6 -28 3 -8 -1 -20 -8 -26 -8 -7 -12 -16 -9 -21 3 -5 1 -9 -4 -9
-5 0 -26 -33 -47 -73 -20 -39 -58 -93 -84 -118 -26 -25 -53 -61 -61 -79 -18
-43 -90 -138 -156 -206 -27 -28 -65 -81 -84 -118 -19 -37 -47 -80 -62 -96 -14
-16 -29 -39 -33 -50 -3 -11 -10 -20 -15 -20 -4 0 -11 -11 -14 -25 -4 -14 -10
-25 -15 -25 -5 0 -17 -14 -25 -30 -9 -17 -23 -43 -31 -59 -18 -33 -24 -55 -34
-121 -12 -73 -35 -105 -96 -135 -30 -15 -57 -31 -60 -35 -2 -3 -22 -12 -44
-20 -23 -7 -41 -18 -41 -24 0 -6 -13 -17 -30 -24 -30 -14 -39 -35 -20 -47 6
-4 7 -12 3 -18 -4 -7 -9 -20 -10 -31 -3 -15 -1 -16 11 -7 10 8 16 9 21 1 7
-11 -29 -62 -42 -59 -4 2 -10 -8 -13 -22 -3 -13 -17 -43 -32 -66 -16 -24 -28
-52 -28 -63 0 -11 -6 -20 -14 -20 -15 0 -44 -39 -49 -67 -10 -48 -22 -79 -39
-97 -10 -11 -18 -28 -18 -39 0 -13 -5 -17 -16 -13 -9 4 -13 2 -8 -5 9 -14 -13
-56 -49 -96 -16 -17 -31 -43 -32 -57 -6 -50 -36 -122 -63 -151 -15 -16 -39
-49 -52 -72 -13 -24 -27 -43 -31 -43 -3 0 -24 -25 -44 -55 -21 -30 -42 -55
-47 -55 -12 0 -40 -69 -34 -85 2 -7 -1 -21 -9 -31 -31 -45 -65 -114 -65 -133
0 -11 -4 -22 -9 -26 -6 -3 -20 -26 -32 -50 -13 -25 -31 -53 -41 -62 -10 -9
-18 -21 -18 -28 0 -7 -9 -22 -20 -35 -11 -13 -20 -29 -20 -37 0 -8 -4 -12 -9
-8 -9 5 -36 -32 -34 -45 1 -3 -1 -7 -4 -10 -4 -3 -3 1 1 8 4 7 2 12 -7 12 -7
0 -14 -6 -14 -12 -1 -29 -10 -44 -40 -72 -18 -16 -33 -35 -33 -42 0 -8 -5 -14
-11 -14 -6 0 -51 -40 -101 -90 -49 -49 -93 -90 -98 -90 -5 0 -26 -17 -47 -39
-21 -21 -54 -44 -74 -50 -20 -7 -45 -21 -54 -31 -10 -11 -31 -20 -47 -20 -15
0 -38 -6 -49 -13 -31 -18 -95 -80 -102 -97 -3 -9 -6 -10 -6 -2 -2 26 -71 1
-71 -26 0 -9 -31 -25 -53 -27 -11 0 -57 -45 -57 -55 0 -5 -9 -12 -20 -15 -11
-3 -20 -13 -20 -21 0 -17 -20 -19 -20 -1 0 6 -9 1 -19 -12 -10 -13 -27 -25
-37 -26 -32 -3 -77 -28 -114 -63 -19 -18 -41 -32 -50 -31 -43 5 -124 -71 -135
-126 -1 -5 -3 -12 -4 -15 -3 -6 -12 -89 -12 -112 0 -10 -3 -18 -7 -18 -4 0 -8
-10 -8 -22 -4 -58 -10 -86 -18 -81 -4 3 -5 -4 -1 -16 3 -12 2 -21 -4 -21 -7 0
-6 -10 1 -30 5 -17 8 -39 5 -50 -3 -11 -2 -20 3 -20 8 0 -2 -60 -14 -79 -4 -6
-1 -11 6 -11 9 -1 9 -4 -3 -13 -10 -8 -13 -20 -9 -37 4 -14 2 -31 -3 -37 -6
-9 -6 -17 1 -25 13 -17 5 -58 -15 -81 -14 -15 -15 -20 -4 -26 10 -7 10 -13 2
-29 -6 -11 -11 -30 -11 -41 l0 -21 2353 1 c1293 1 2342 4 2329 6 -13 3 -26 11
-29 20 -5 12 -7 12 -14 1 -7 -11 -10 -11 -18 0 -4 7 -14 14 -22 15 -48 8 -80
83 -39 94 11 3 20 10 20 17 0 6 7 2 15 -8 13 -17 15 -17 15 -4 0 26 18 31 49
12 18 -11 36 -14 47 -9 13 5 15 9 7 12 -7 3 -13 16 -13 29 0 17 -4 23 -12 18
-7 -4 -8 -3 -4 4 4 7 19 12 34 11 15 0 21 -3 15 -6 -20 -7 -15 -27 12 -53 l25
-23 0 21 c0 12 -6 22 -14 22 -9 0 -12 7 -9 20 6 21 30 22 25 1 -5 -24 19 -52
38 -46 12 4 31 -2 49 -16 25 -18 35 -20 53 -12 13 6 58 9 101 6 65 -4 77 -2
77 11 0 9 4 16 9 16 5 0 8 -8 7 -17 -1 -12 7 -19 22 -21 20 -3 23 0 18 16 -4
12 0 26 9 35 8 9 15 21 15 27 0 6 5 8 10 5 6 -4 9 -14 8 -23 -2 -12 6 -18 27
-20 16 -2 33 -8 36 -13 3 -6 23 -3 48 6 24 8 53 15 65 15 12 0 27 5 34 12 9 9
12 8 12 -5 0 -13 9 -17 33 -17 39 0 100 27 94 43 -4 14 -47 29 -47 17 0 -16
-76 -12 -90 5 -11 13 -5 15 41 17 58 1 97 4 117 6 6 1 12 9 12 17 0 8 8 15 18
14 10 0 12 -3 4 -6 -18 -7 -4 -23 21 -23 16 0 18 -3 8 -9 -11 -7 -11 -10 0
-17 7 -4 14 -3 17 4 2 7 12 12 23 12 10 0 19 4 19 10 0 5 -7 7 -15 4 -8 -4
-15 -2 -15 4 0 5 10 12 23 16 34 9 40 7 28 -7 -12 -15 -5 -27 17 -27 8 0 12 6
8 15 -3 8 -1 15 4 15 6 0 10 -7 10 -15 0 -10 11 -15 35 -15 27 0 35 -4 35 -17
1 -17 1 -17 14 -1 15 21 80 15 109 -10 16 -14 19 -14 28 -2 5 8 7 21 4 28 -3
7 0 10 5 7 6 -4 24 0 41 9 37 18 72 11 44 -10 -14 -10 -15 -18 -8 -41 l10 -28
7 33 c4 17 11 32 16 32 4 0 6 9 3 20 -3 11 -9 20 -14 20 -5 0 -9 5 -9 10 0 16
37 12 44 -5 7 -18 43 -20 48 -3 3 9 9 8 22 -5 25 -24 53 -21 81 8 15 17 26 22
30 15 4 -7 15 -10 25 -7 9 2 28 -4 41 -14 31 -24 38 -24 32 0 -9 35 15 32 28
-4 7 -19 19 -35 26 -35 11 0 13 1144 13 6280 l0 6280 -4235 0 c-3383 0 -4234
-3 -4230 -12z m4305 -3998 c0 -5 -2 -10 -4 -10 -3 0 -8 5 -11 10 -3 6 -1 10 4
10 6 0 11 -4 11 -10z m845 -100 c3 -5 1 -10 -4 -10 -6 0 -11 5 -11 10 0 6 2
10 4 10 3 0 8 -4 11 -10z m-797 -45 c-3 -3 -9 2 -12 12 -6 14 -5 15 5 6 7 -7
10 -15 7 -18z m1778 -32 c-3 -8 -6 -17 -6 -19 0 -3 -4 -2 -10 1 -17 11 -12 45
6 38 8 -3 13 -12 10 -20z m-1750 -27 c10 -8 16 -17 13 -21 -8 -7 -59 15 -59
27 0 13 24 10 46 -6z m208 -31 c-6 -16 -24 -21 -24 -7 0 11 11 22 21 22 5 0 6
-7 3 -15z m679 -9 c4 -10 1 -13 -9 -9 -7 3 -14 9 -14 14 0 14 17 10 23 -5z
m-583 -30 c0 -3 -4 -8 -10 -11 -5 -3 -10 -1 -10 4 0 6 5 11 10 11 6 0 10 -2
10 -4z m33 -66 c4 -15 0 -20 -14 -20 -18 0 -26 20 -12 33 11 12 21 8 26 -13z
m897 -31 c0 -14 -5 -11 -31 17 l-24 27 28 -18 c15 -9 27 -21 27 -26z m-530 6
c10 -12 10 -15 -3 -15 -8 0 -20 7 -27 15 -10 12 -10 15 3 15 8 0 20 -7 27 -15z
m-219 -8 c12 -10 13 -16 3 -35 -8 -17 -13 -20 -21 -10 -11 15 -15 58 -5 58 4
0 14 -6 23 -13z m2083 -38 c-10 -16 -24 -9 -24 12 0 18 2 19 15 9 8 -7 12 -16
9 -21z m-1837 15 c-3 -3 -12 -4 -19 -1 -8 3 -5 6 6 6 11 1 17 -2 13 -5z m-394
-85 c-4 -15 -9 -16 -29 -7 -22 10 -23 13 -9 28 8 9 15 23 15 31 1 8 7 3 14
-10 7 -13 11 -32 9 -42z m81 -3 c20 8 22 -28 3 -45 -19 -15 -72 40 -63 66 7
17 9 16 26 -5 11 -13 24 -20 34 -16z m66 18 c0 -11 -5 -14 -16 -10 -9 3 -20 6
-25 6 -5 0 -9 5 -9 10 0 6 11 10 25 10 16 0 25 -6 25 -16z m1064 -10 c9 -22 8
-24 -9 -24 -8 0 -15 9 -15 20 0 24 15 27 24 4z m-806 -124 c3 -26 0 -32 -12
-27 -8 3 -18 1 -22 -5 -4 -7 -3 -8 4 -4 13 8 5 -52 -8 -68 -12 -13 -32 4 -25
22 3 8 1 18 -5 22 -14 9 -2 40 17 40 7 0 13 6 12 13 -3 20 12 48 25 44 6 -2
12 -18 14 -37z m162 -11 c0 -5 -4 -9 -10 -9 -5 0 -10 7 -10 16 0 8 5 12 10 9
6 -3 10 -10 10 -16z m-1400 -44 c0 -23 -2 -24 -20 -15 -23 12 -26 26 -7 33 23
10 27 7 27 -18z m936 -38 c-1 -7 -1 -9 1 -4 12 20 66 6 96 -25 26 -29 30 -30
25 -10 -4 12 -3 20 1 17 4 -2 8 -25 9 -50 0 -37 -3 -45 -15 -41 -8 3 -23 6
-34 6 -10 0 -19 6 -19 14 0 18 -33 30 -58 22 -22 -7 -63 31 -45 42 5 4 13 17
17 30 7 22 28 22 22 -1z m-556 -23 c0 -21 -19 -54 -31 -54 -5 0 -14 11 -19 25
-13 35 6 68 32 54 10 -5 18 -17 18 -25z m258 12 c3 -12 -1 -17 -10 -14 -7 3
-15 13 -16 22 -3 12 1 17 10 14 7 -3 15 -13 16 -22z m910 12 c-6 -18 -28 -21
-28 -4 0 9 7 16 16 16 9 0 14 -5 12 -12z m-324 -84 c9 -22 8 -24 -9 -18 -8 4
-15 12 -15 20 0 19 16 18 24 -2z m-214 -49 c0 -7 -6 -15 -14 -18 -15 -6 -40
38 -30 54 7 12 44 -18 44 -36z m374 19 c8 -22 8 -44 -2 -44 -12 0 -33 40 -27
50 9 15 22 12 29 -6z m524 -124 c14 -30 8 -55 -9 -45 -5 4 -9 1 -9 -4 0 -6 -7
-11 -15 -11 -10 0 -15 10 -15 30 0 17 5 30 10 30 6 0 10 7 10 15 0 25 14 17
28 -15z m-2448 10 c0 -5 -4 -10 -10 -10 -5 0 -10 5 -10 10 0 6 5 10 10 10 6 0
10 -4 10 -10z m2086 -22 c27 -26 30 -38 10 -38 -14 0 -46 36 -46 52 0 14 11 9
36 -14z m-1661 2 c-3 -5 -10 -10 -16 -10 -5 0 -9 5 -9 10 0 6 7 10 16 10 8 0
12 -4 9 -10z m1795 -44 c-1 -28 -2 -29 -12 -11 -6 11 -15 23 -20 26 -5 3 -6
13 -2 23 10 26 34 0 34 -38z m-405 -39 c11 -8 15 -19 10 -26 -5 -9 -12 -7 -26
8 -30 32 -20 44 16 18z m490 -23 c32 -21 32 -44 0 -44 -14 0 -25 3 -25 8 0 4
-3 17 -6 30 -7 26 -2 27 31 6z m535 -34 c0 -5 -4 -10 -10 -10 -5 0 -10 5 -10
10 0 6 5 10 10 10 6 0 10 -4 10 -10z m-341 -38 c7 -22 6 -34 -4 -42 -10 -8
-14 -2 -17 27 -8 61 6 71 21 15z m466 -10 c0 -18 -20 -15 -23 4 -3 10 1 15 10
12 7 -3 13 -10 13 -16z m-1271 -48 c4 -9 4 -19 2 -21 -8 -8 -26 8 -26 23 0 19
16 18 24 -2z m522 1 c-3 -8 -1 -15 4 -15 6 0 10 -8 10 -17 -1 -16 -2 -16 -15
1 -18 23 -19 46 -4 46 6 0 9 -7 5 -15z m29 5 c3 -5 1 -10 -4 -10 -6 0 -11 5
-11 10 0 6 2 10 4 10 3 0 8 -4 11 -10z m-397 -65 c-3 -3 -9 2 -12 12 -6 14 -5
15 5 6 7 -7 10 -15 7 -18z m890 -85 c-3 -22 -4 -23 -18 -5 -11 14 -11 17 -1
11 10 -7 12 -3 6 15 -6 18 -4 21 5 13 6 -7 10 -22 8 -34z m-1478 -11 c0 -10
-4 -19 -10 -19 -5 0 -10 12 -10 26 0 14 4 23 10 19 6 -3 10 -15 10 -26z m1363
-19 c9 -16 12 -32 7 -35 -14 -9 -45 47 -33 59 9 9 10 8 26 -24z m-723 -10 c0
-5 -4 -10 -10 -10 -5 0 -10 5 -10 10 0 6 5 10 10 10 6 0 10 -4 10 -10z m77 -7
c-9 -9 -20 -13 -24 -9 -4 4 -1 11 7 16 25 16 35 11 17 -7z m-187 -14 c0 -5 -4
-9 -10 -9 -5 0 -10 7 -10 16 0 8 5 12 10 9 6 -3 10 -10 10 -16z m998 -41 c7
-7 12 -21 12 -32 0 -18 -1 -19 -20 -1 -20 18 -27 45 -12 45 4 0 13 -5 20 -12z
m-1065 -30 c7 -22 -4 -36 -24 -31 -25 7 -25 43 0 43 11 0 21 -6 24 -12z m874
-33 c-2 -34 -10 -44 -22 -25 -7 12 5 60 15 60 5 0 8 -16 7 -35z m103 -70 c0
-5 -5 -3 -10 5 -5 8 -10 20 -10 25 0 6 5 3 10 -5 5 -8 10 -19 10 -25z m-36 -1
c10 -4 16 -18 16 -35 0 -24 -4 -29 -24 -29 -24 0 -36 16 -36 51 0 19 16 24 44
13z m-140 -36 c-5 -13 -7 -35 -6 -50 2 -35 -11 -36 -26 -3 -15 33 -15 48 0 63
21 21 40 15 32 -10z m-264 -28 c0 -5 -4 -10 -10 -10 -5 0 -10 5 -10 10 0 6 5
10 10 10 6 0 10 -4 10 -10z m-398 -42 c9 -7 18 -30 20 -50 3 -32 1 -38 -14
-38 -20 0 -38 36 -38 76 0 27 9 30 32 12z m823 -44 c0 -10 -8 -20 -17 -22 -18
-3 -26 27 -11 42 12 11 28 0 28 -20z m-606 -117 c6 -17 12 -36 12 -42 1 -5 8
-14 15 -20 18 -13 28 -95 15 -115 -8 -12 -13 -12 -23 -2 -9 9 -9 12 0 12 7 0
12 5 12 11 0 6 -9 9 -20 6 -11 -3 -20 -1 -20 4 0 5 -7 9 -15 9 -8 0 -15 7 -15
15 0 8 5 15 10 15 12 0 13 52 1 66 -10 11 -2 86 9 79 5 -3 13 -20 19 -38z
m911 -112 c0 -16 -6 -25 -15 -25 -9 0 -15 9 -15 25 0 16 6 25 15 25 9 0 15 -9
15 -25z m-455 6 c3 -5 1 -12 -5 -16 -5 -3 -10 1 -10 9 0 18 6 21 15 7z m535
-466 c0 -8 -7 -15 -15 -15 -16 0 -20 12 -8 23 11 12 23 8 23 -8z m-6721 -116
c2 -8 5 -8 10 0 5 7 17 8 37 2 16 -5 67 -20 114 -32 86 -22 299 -120 400 -184
30 -19 62 -34 71 -35 8 0 25 -11 38 -23 12 -13 51 -38 86 -56 36 -18 65 -37
65 -42 0 -5 7 -9 15 -9 9 0 27 -7 40 -16 14 -9 34 -14 44 -11 13 3 18 1 14 -8
-3 -9 6 -15 29 -17 25 -2 34 -8 36 -25 2 -13 10 -23 19 -23 8 0 17 -9 20 -20
4 -13 11 -19 22 -16 23 8 36 -5 38 -37 2 -25 -1 -27 -20 -21 -12 3 -29 13 -38
20 -9 8 -18 11 -21 8 -4 -3 -9 4 -13 15 -5 17 -12 20 -41 15 -26 -4 -34 -2
-34 9 0 11 -7 13 -21 10 -14 -4 -26 0 -33 9 -6 8 -22 19 -36 23 -14 4 -36 16
-49 26 -13 11 -30 19 -37 19 -7 0 -22 9 -33 21 -11 12 -24 18 -30 14 -6 -3
-11 -1 -11 4 0 6 -11 11 -24 11 -14 0 -28 5 -31 10 -4 6 -11 8 -16 4 -6 -3
-13 2 -16 12 -9 33 -204 111 -320 129 -24 4 -43 10 -43 15 0 4 -15 11 -34 14
-47 9 -120 51 -153 89 -16 17 -47 51 -70 75 l-43 44 33 -6 c17 -4 34 -11 36
-17z m6451 -18 c0 -6 -4 -12 -10 -16 -6 -4 -6 -15 0 -30 7 -19 6 -25 -4 -25
-8 0 -16 10 -20 23 -11 41 -7 57 14 57 11 0 20 -4 20 -9z m155 -248 c19 -11
19 -12 -6 -22 -15 -5 -29 -15 -31 -22 -2 -7 -9 -9 -15 -6 -9 5 -9 16 -2 36 11
30 21 33 54 14z m-5465 -319 c0 -9 -5 -14 -12 -12 -18 6 -21 28 -4 28 9 0 16
-7 16 -16z m56 -14 c9 0 12 -5 9 -10 -5 -8 -11 -8 -19 -1 -7 6 -16 8 -20 4 -4
-4 -4 1 0 12 5 11 9 14 12 7 2 -7 10 -12 18 -12z m-326 -260 c0 -5 -5 -10 -11
-10 -5 0 -7 5 -4 10 3 6 8 10 11 10 2 0 4 -4 4 -10z m-220 -70 c0 -5 -2 -10
-4 -10 -3 0 -8 5 -11 10 -3 6 -1 10 4 10 6 0 11 -4 11 -10z m6280 -111 c0 -5
-4 -9 -10 -9 -5 0 -10 7 -10 16 0 8 5 12 10 9 6 -3 10 -10 10 -16z m-2470
-276 c0 -23 -35 -152 -48 -178 -9 -16 -31 -49 -50 -73 -25 -31 -38 -40 -47
-32 -12 10 -42 -30 -116 -155 -73 -124 -62 -49 16 112 30 62 57 125 61 140 7
26 6 27 -10 13 -17 -13 -18 -11 -11 45 4 33 12 62 16 63 5 2 9 9 9 16 0 6 14
20 31 30 30 18 30 18 36 -3 7 -28 26 -27 60 4 27 24 53 32 53 18z m-1830 -35
c-14 -26 -101 -112 -130 -128 -16 -9 -18 -7 -15 12 2 13 16 32 31 43 14 11 47
39 72 62 51 45 60 48 42 11z m3004 -160 c-8 -27 -39 -60 -48 -51 -3 4 -6 -1
-6 -10 0 -14 -27 -37 -43 -37 -16 0 16 79 40 97 38 31 67 31 57 1z m-1492
-343 c-2 -14 -9 -25 -14 -25 -5 0 -8 -6 -5 -12 2 -7 -7 -37 -20 -66 -12 -29
-23 -59 -23 -66 0 -8 -6 -16 -14 -19 -7 -3 -18 -25 -24 -49 -14 -51 -28 -75
-38 -65 -8 7 5 52 32 112 7 17 20 56 29 88 10 35 30 72 48 93 18 19 32 34 33
34 1 0 -1 -11 -4 -25z m-1434 -982 c-5 -27 -15 -77 -23 -113 -8 -36 -16 -89
-19 -119 -3 -32 -20 -83 -40 -126 -19 -39 -44 -105 -57 -146 -12 -40 -25 -75
-30 -77 -4 -2 -5 -11 -2 -21 3 -10 0 -21 -5 -25 -6 -4 -8 12 -5 42 2 26 6 88
7 137 4 105 50 289 90 361 14 25 26 52 26 60 0 7 11 21 25 32 14 11 25 25 25
31 0 6 4 11 9 11 4 0 4 -21 -1 -47z m1882 -127 c0 -11 -19 -15 -25 -6 -3 5 1
10 9 10 9 0 16 -2 16 -4z m-2063 -358 c-3 -8 -6 -5 -6 6 -1 11 2 17 5 13 3 -3
4 -12 1 -19z m6033 -2648 c0 -5 -2 -10 -4 -10 -3 0 -8 5 -11 10 -3 6 -1 10 4
10 6 0 11 -4 11 -10z m-317 -26 c-3 -8 -12 -13 -20 -9 -12 4 -14 0 -10 -15 4
-15 0 -20 -15 -20 -20 0 -18 10 10 43 19 21 44 23 35 1z m-73 -14 c0 -5 -4
-10 -10 -10 -5 0 -10 5 -10 10 0 6 5 10 10 10 6 0 10 -4 10 -10z m170 0 c0 -5
-7 -10 -15 -10 -8 0 -15 5 -15 10 0 6 7 10 15 10 8 0 15 -4 15 -10z m-705 -19
c3 -6 -3 -9 -14 -8 -11 0 -17 5 -15 9 7 11 22 10 29 -1z m122 3 c-3 -3 -12 -4
-19 -1 -8 3 -5 6 6 6 11 1 17 -2 13 -5z m-217 -30 c0 -20 -7 -17 -20 6 -9 16
-8 18 5 14 8 -4 15 -12 15 -20z m-347 -11 c-7 -2 -19 -2 -25 0 -7 3 -2 5 12 5
14 0 19 -2 13 -5z m-283 -13 c0 -5 -7 -10 -15 -10 -8 0 -15 5 -15 10 0 6 7 10
15 10 8 0 15 -4 15 -10z m24 -15 c-4 -8 -8 -15 -10 -15 -2 0 -4 7 -4 15 0 8 4
15 10 15 5 0 7 -7 4 -15z m-106 -34 c26 -22 28 -31 7 -31 -8 0 -15 7 -15 15 0
7 -8 19 -17 24 -10 6 -13 11 -7 11 6 0 21 -8 32 -19z"/>
<path d="M6032 8029 c2 -7 10 -15 17 -17 8 -3 12 1 9 9 -2 7 -10 15 -17 17 -8
3 -12 -1 -9 -9z"/>
<path d="M520 11116 c0 -2 7 -9 15 -16 13 -11 14 -10 9 4 -5 14 -24 23 -24 12z"/>
<path d="M561 11084 c0 -11 3 -14 6 -6 3 7 2 16 -1 19 -3 4 -6 -2 -5 -13z"/>
<path d="M245 8699 c-4 -6 -5 -12 -2 -15 2 -3 7 2 10 11 7 17 1 20 -8 4z"/>
<path d="M6365 6508 c-27 -24 -88 -77 -135 -118 -47 -41 -100 -87 -119 -101
l-33 -26 -1 -95 c-1 -90 0 -98 27 -137 35 -50 42 -48 20 5 -19 44 -22 190 -5
207 7 7 31 -12 81 -64 86 -91 91 -118 33 -173 -21 -20 -41 -36 -45 -36 -18 0
-6 -18 19 -29 30 -14 43 -3 43 36 0 22 66 93 86 93 6 0 46 -11 88 -25 42 -14
85 -25 96 -25 21 0 40 -28 40 -59 0 -25 23 -27 68 -8 28 12 72 49 264 229 84
78 82 90 -39 171 -141 94 -361 197 -421 197 -10 0 -40 -19 -67 -42z"/>
<path d="M5325 5453 c-49 -34 -75 -62 -75 -80 0 -36 145 -147 304 -234 87 -47
113 -49 152 -8 16 17 39 35 52 40 54 21 3 81 -163 192 -86 57 -199 117 -220
117 -6 0 -28 -12 -50 -27z m33 -41 c25 -22 16 -43 -15 -31 -15 6 -20 14 -16
28 6 25 5 25 31 3z m90 -65 c2 -16 -2 -27 -9 -27 -6 0 -9 8 -6 19 3 14 0 17
-14 14 -15 -4 -18 -1 -13 11 10 26 39 14 42 -17z m49 -22 c9 -25 -4 -29 -17
-6 -7 15 -7 21 0 21 6 0 13 -7 17 -15z m48 -25 c3 -5 1 -10 -4 -10 -6 0 -11 5
-11 10 0 6 2 10 4 10 3 0 8 -4 11 -10z m35 -28 c0 -13 -29 -48 -30 -35 0 6 -3
18 -6 27 -4 12 0 16 15 16 12 0 21 -4 21 -8z m60 -38 c0 -8 -4 -14 -10 -14 -5
0 -10 9 -10 21 0 11 5 17 10 14 6 -3 10 -13 10 -21z m44 -72 c-17 -16 -18 -16
-11 1 4 10 7 26 7 35 1 15 2 15 11 -1 8 -13 6 -22 -7 -35z"/>
<path d="M570 4130 c0 -5 9 -14 20 -20 16 -8 20 -8 20 4 0 7 -7 17 -16 20 -21
8 -24 8 -24 -4z"/>
<path d="M629 4115 c-6 -29 13 -64 36 -67 11 -2 29 -17 40 -35 11 -17 37 -40
57 -50 21 -10 41 -26 44 -35 6 -19 44 -25 44 -7 0 5 -4 8 -8 5 -4 -2 -14 9
-21 26 -8 17 -25 34 -40 39 -15 5 -35 23 -45 39 -9 17 -27 35 -39 42 -12 6
-27 18 -34 27 -7 9 -13 12 -13 6 -1 -5 -5 -1 -9 10 l-8 20 -4 -20z"/>
<path d="M1 2828 c-1 -20 3 -26 14 -22 8 4 15 10 15 16 0 5 -4 7 -9 3 -5 -3
-12 3 -14 12 -3 11 -5 8 -6 -9z"/>
<path d="M7 2793 c-4 -3 -7 -231 -7 -506 0 -462 1 -502 17 -520 10 -11 13 -17
7 -14 -7 4 -14 -5 -18 -24 -8 -43 -8 -51 4 -44 6 3 10 1 10 -4 0 -6 6 -11 14
-11 17 0 15 -45 -2 -62 -17 -17 -15 -33 3 -18 13 11 15 8 15 -14 0 -19 5 -26
19 -26 29 0 35 -17 10 -25 -20 -7 -21 -8 -5 -17 9 -5 24 -7 31 -4 8 3 17 1 20
-4 4 -6 -1 -10 -10 -10 -12 0 -15 -5 -11 -16 3 -9 6 -18 6 -20 0 -2 10 -4 23
-4 16 0 18 -3 8 -9 -16 -10 -7 -81 11 -81 7 0 7 -4 -1 -14 -14 -16 16 -106 36
-106 12 0 15 -7 18 -51 0 -9 7 -24 14 -33 7 -9 11 -22 8 -31 -4 -8 -2 -17 3
-20 5 -3 10 3 13 12 2 10 3 -3 2 -30 -1 -47 16 -80 30 -57 3 6 11 8 16 4 5 -3
7 -10 3 -15 -3 -6 3 -17 14 -25 20 -14 25 -56 8 -82 -4 -7 -5 -30 -1 -51 7
-44 51 -76 88 -66 12 3 17 3 11 -2 -14 -11 -35 -73 -24 -73 4 0 11 6 13 13 3
6 6 -1 6 -16 1 -16 -3 -26 -7 -23 -4 2 -8 -4 -8 -15 0 -24 0 -24 32 9 19 19
25 22 20 9 -7 -20 22 -77 39 -77 5 0 3 -6 -6 -13 -8 -7 -18 -20 -22 -29 -4
-11 -13 -16 -24 -12 -15 5 -15 4 -3 -4 8 -6 18 -8 22 -6 5 3 17 2 29 -1 19 -7
20 -7 2 -21 -17 -12 -16 -13 7 -14 20 0 22 -2 10 -10 -13 -8 -12 -10 3 -10 13
0 17 -8 17 -35 0 -19 4 -35 9 -35 5 0 11 -9 14 -20 3 -11 1 -20 -4 -20 -5 0
-9 5 -9 10 0 6 -8 10 -17 9 -12 0 -13 -2 -5 -6 10 -4 10 -8 0 -20 -16 -19 -21
-53 -8 -53 6 0 15 12 20 26 6 14 15 22 21 18 7 -4 7 -10 1 -16 -6 -6 -8 -17
-5 -24 3 -9 -2 -14 -17 -14 -13 0 -29 -8 -37 -17 -13 -16 -14 -16 -9 9 8 35
-10 46 -18 12 -5 -20 -10 -23 -20 -15 -7 6 -16 8 -20 4 -4 -4 -11 -1 -16 7 -6
9 -10 10 -10 3 0 -6 -15 -11 -34 -11 -30 0 -36 4 -45 31 -13 34 -10 39 22 43
12 1 25 3 30 3 4 1 7 5 7 11 0 5 -7 7 -16 3 -11 -4 -22 1 -30 12 -12 16 -14
17 -14 3 0 -9 -5 -20 -11 -24 -8 -4 -9 4 -4 27 7 34 7 34 -13 16 -14 -13 -22
-15 -27 -7 -6 9 -10 9 -15 -1 -11 -17 -40 6 -40 32 0 11 -4 19 -10 19 -5 0
-10 6 -10 14 0 8 -9 18 -20 21 -11 3 -20 11 -20 17 0 5 7 8 15 4 9 -3 15 0 15
10 0 13 -6 15 -27 9 l-27 -6 25 20 24 20 -22 1 c-13 0 -23 6 -23 14 0 8 -7 17
-16 20 -24 9 -26 8 -19 -16 4 -16 4 -19 -3 -9 -6 8 -15 10 -23 6 -8 -5 -5 1 5
13 11 12 15 22 11 22 -5 0 -1 6 10 13 12 10 14 16 7 21 -7 4 -12 2 -12 -4 0
-6 -5 -8 -10 -5 -6 4 -9 14 -8 23 2 12 -5 18 -24 20 -16 2 -28 -2 -28 -8 0 -6
8 -10 18 -8 10 2 17 -3 17 -12 0 -10 -8 -14 -22 -12 l-23 3 0 -335 0 -336
1036 0 c687 0 1033 3 1029 10 -3 6 -1 10 4 10 6 0 11 -5 11 -11 0 -5 5 -7 11
-3 15 9 -8 23 -41 25 -22 2 -23 2 -3 6 12 2 24 10 27 18 5 15 -21 42 -31 31
-3 -3 -1 -6 7 -6 10 0 10 -3 0 -15 -7 -8 -20 -15 -29 -15 -14 0 -14 2 -1 10
13 8 12 10 -2 10 -10 0 -18 5 -18 11 0 5 5 7 10 4 5 -3 10 0 10 8 0 18 -27 31
-57 28 -24 -3 -41 18 -23 29 7 4 0 9 -19 13 -34 7 -41 30 -15 45 13 7 8 11
-22 17 -22 4 -33 10 -26 12 6 3 12 9 12 15 0 6 -6 8 -14 5 -8 -3 -22 3 -31 13
-9 10 -30 22 -46 25 -27 6 -34 19 -30 53 1 6 -3 12 -9 12 -5 0 -10 -7 -10 -15
0 -15 -12 -20 -22 -9 -4 3 -2 19 2 36 7 24 6 29 -5 24 -8 -3 -17 -1 -20 4 -4
6 -1 10 4 10 6 0 11 5 11 10 0 6 -4 10 -9 10 -11 0 -72 60 -63 61 4 1 -4 4
-17 8 -32 9 -39 31 -10 31 28 0 18 12 -13 15 -13 1 -27 3 -31 4 -4 0 -3 10 3
21 6 11 8 21 5 21 -3 1 -9 2 -14 3 -5 0 -13 4 -17 8 -4 4 -13 0 -20 -10 -11
-14 -13 -15 -14 -1 0 8 6 21 13 28 6 7 8 12 2 11 -18 -4 -50 1 -39 6 6 3 9 16
6 30 -3 20 -7 22 -18 13 -23 -19 -29 -2 -18 51 6 28 7 50 2 50 -4 0 -8 -7 -8
-15 0 -11 -8 -13 -32 -8 -18 3 -33 6 -33 7 0 1 -10 16 -23 34 -12 17 -18 32
-12 32 18 0 11 20 -7 21 -16 0 -16 1 0 8 17 6 16 8 -8 19 -19 9 -24 9 -19 1 4
-7 1 -10 -7 -7 -8 3 -16 15 -17 29 -2 13 -10 28 -18 32 -8 5 -12 12 -9 17 3 5
1 11 -5 15 -5 3 -10 1 -10 -4 0 -6 -5 -11 -11 -11 -6 0 -9 9 -6 20 6 24 -12
38 -25 19 -8 -11 -8 -10 -4 4 3 10 6 22 6 27 0 5 8 11 18 13 13 4 11 5 -5 6
-13 0 -23 -5 -23 -11 0 -7 -5 -5 -11 5 -5 9 -8 21 -4 26 8 14 -39 58 -59 55
-19 -3 -22 12 -3 19 10 4 10 6 0 6 -15 1 -18 31 -3 31 6 0 10 5 10 10 0 6 -8
5 -19 -2 -15 -9 -23 -9 -36 2 -9 7 -14 19 -11 26 3 7 1 16 -4 19 -5 3 -7 12
-3 20 4 11 1 13 -11 9 -8 -3 -23 1 -31 10 -9 9 -12 16 -7 16 19 0 -1 42 -24
50 -18 7 -22 15 -19 39 4 33 -10 43 -18 14 -3 -12 -5 -9 -6 8 0 15 -8 40 -16
55 -8 16 -15 39 -15 52 0 23 -7 27 -27 14 -7 -4 -10 -17 -6 -30 3 -12 9 -20
13 -17 9 6 21 -20 13 -29 -9 -9 -32 20 -39 50 -4 16 -12 32 -18 36 -6 4 0 8
14 8 23 0 23 2 -9 17 -29 15 -31 18 -15 24 17 6 16 8 -9 18 -16 6 -33 11 -38
11 -15 0 -10 17 6 24 8 3 15 14 15 24 0 14 -6 18 -22 16 -17 -3 -28 5 -45 31
-18 28 -19 35 -7 35 8 0 12 5 9 10 -3 6 -21 10 -38 10 -25 0 -28 3 -17 10 13
9 13 11 0 20 -20 13 -30 12 -30 -2 0 -9 -4 -8 -10 2 -13 20 -13 33 0 25 6 -3
13 2 17 12 4 10 11 22 17 26 6 5 -1 7 -16 4 -16 -2 -28 0 -28 4 0 5 -7 9 -15
9 -18 0 -21 46 -2 53 6 3 -3 3 -21 0 -28 -5 -31 -3 -26 12 5 13 9 14 15 3 6
-9 9 -6 9 10 0 13 -4 21 -9 17 -6 -3 -15 3 -21 12 -11 17 -11 17 -6 1 9 -31
-21 -20 -32 11 -8 23 -7 31 4 35 21 8 17 26 -6 26 -11 0 -20 6 -20 13 0 23
-40 57 -65 57 -27 0 -34 17 -10 26 23 9 18 24 -7 21 -19 -2 -23 3 -25 28 -2
48 -3 51 -12 37 -6 -9 -12 1 -21 35 -7 26 -13 51 -12 56 1 4 -4 7 -10 7 -10 0
-10 2 -1 8 9 6 7 11 -7 20 -16 10 -20 10 -21 0 0 -7 -4 -4 -8 7 -5 11 -5 28 0
37 10 18 -5 35 -16 18 -11 -18 -25 -10 -25 14 0 24 -14 41 -34 41 -5 0 -10 8
-12 18 -3 21 -34 48 -46 41 -5 -3 -8 6 -8 20 0 13 -6 26 -12 29 -10 3 -10 7 0
19 10 13 9 18 -3 28 -13 10 -15 9 -15 -9 0 -11 -5 -21 -11 -21 -6 0 -8 9 -4
20 4 11 2 20 -4 20 -6 0 -11 14 -11 31 0 18 -4 28 -10 24 -20 -12 -24 28 -4
43 16 12 16 14 2 9 -28 -10 -46 2 -53 34 -6 29 -15 35 -28 22z m338 -593 c3
-5 1 -10 -4 -10 -6 0 -11 5 -11 10 0 6 2 10 4 10 3 0 8 -4 11 -10z m-5 -1310
c0 -5 -4 -10 -10 -10 -5 0 -10 5 -10 10 0 6 5 10 10 10 6 0 10 -4 10 -10z m18
-65 c-14 -15 -29 16 -15 33 9 12 12 11 18 -5 4 -10 3 -22 -3 -28z m50 -10 c-3
-3 -9 2 -12 12 -6 14 -5 15 5 6 7 -7 10 -15 7 -18z m139 -367 c-3 -8 -6 -5 -6
6 -1 11 2 17 5 13 3 -3 4 -12 1 -19z m1093 2 c0 -5 -4 -10 -10 -10 -5 0 -10 5
-10 10 0 6 5 10 10 10 6 0 10 -4 10 -10z m-1100 -155 c-19 -23 -22 -85 -4 -85
9 0 13 -4 9 -9 -3 -5 -1 -12 5 -16 5 -3 10 -1 10 6 0 7 3 9 7 5 8 -8 -24 -36
-40 -36 -5 0 -7 9 -4 20 7 28 -9 25 -18 -2 -6 -22 -7 -22 -15 6 -5 16 -15 33
-22 38 -10 6 -10 10 2 18 11 7 16 5 18 -10 6 -37 23 -20 18 18 -4 39 7 62 31
62 13 0 13 -3 3 -15z m-150 -5 c0 -5 -5 -10 -11 -10 -5 0 -7 5 -4 10 3 6 8 10
11 10 2 0 4 -4 4 -10z m97 -24 c-6 -17 -57 -20 -57 -3 0 9 11 14 30 14 18 0
29 -5 27 -11z m63 -141 c7 -9 8 -15 2 -15 -5 0 -12 7 -16 15 -3 8 -4 15 -2 15
2 0 9 -7 16 -15z"/>
<path d="M400 2170 c0 -5 5 -10 11 -10 5 0 7 5 4 10 -3 6 -8 10 -11 10 -2 0
-4 -4 -4 -10z"/>
<path d="M620 1890 c0 -5 5 -10 10 -10 6 0 10 5 10 10 0 6 -4 10 -10 10 -5 0
-10 -4 -10 -10z"/>
<path d="M680 1815 c0 -8 5 -15 10 -15 6 0 10 7 10 15 0 8 -4 15 -10 15 -5 0
-10 -7 -10 -15z"/>
<path d="M100 1325 c0 -8 7 -15 15 -15 8 0 15 4 15 9 0 5 -7 11 -15 15 -9 3
-15 0 -15 -9z"/>
<path d="M1026 1291 c-4 -7 -5 -15 -2 -18 9 -9 19 4 14 18 -4 11 -6 11 -12 0z"/>
<path d="M126 1262 c-2 -4 -1 -14 3 -21 6 -9 10 -7 14 8 5 20 -7 29 -17 13z"/>
<path d="M92 1224 c10 -10 20 -16 22 -13 3 3 -5 11 -17 18 -21 13 -21 12 -5
-5z"/>
<path d="M25 1170 c3 -5 8 -10 11 -10 2 0 4 5 4 10 0 6 -5 10 -11 10 -5 0 -7
-4 -4 -10z"/>
<path d="M200 1091 c0 -5 5 -13 10 -16 6 -3 10 -2 10 4 0 5 -4 13 -10 16 -5 3
-10 2 -10 -4z"/>
<path d="M1255 990 c-3 -5 -1 -10 4 -10 6 0 11 5 11 10 0 6 -2 10 -4 10 -3 0
-8 -4 -11 -10z"/>
<path d="M295 970 c4 -6 11 -8 16 -5 14 9 11 15 -7 15 -8 0 -12 -5 -9 -10z"/>
<path d="M280 940 c0 -5 4 -10 9 -10 6 0 13 5 16 10 3 6 -1 10 -9 10 -9 0 -16
-4 -16 -10z"/>
<path d="M1335 890 c-3 -5 1 -10 10 -10 9 0 13 5 10 10 -3 6 -8 10 -10 10 -2
0 -7 -4 -10 -10z"/>
<path d="M0 735 c0 -9 5 -15 11 -13 14 5 14 21 0 26 -6 2 -11 -4 -11 -13z"/>
<path d="M422 636 c5 -35 18 -45 18 -13 0 14 -5 29 -10 32 -7 4 -10 -3 -8 -19z"/>
<path d="M395 610 c3 -5 8 -10 11 -10 2 0 4 5 4 10 0 6 -5 10 -11 10 -5 0 -7
-4 -4 -10z"/>
<path d="M295 580 c3 -5 11 -10 16 -10 6 0 7 5 4 10 -3 6 -11 10 -16 10 -6 0
-7 -4 -4 -10z"/>
<path d="M430 530 c0 -5 5 -10 10 -10 6 0 10 5 10 10 0 6 -4 10 -10 10 -5 0
-10 -4 -10 -10z"/>
<path d="M1608 513 c7 -3 16 -2 19 1 4 3 -2 6 -13 5 -11 0 -14 -3 -6 -6z"/>
<path d="M440 498 c0 -4 9 -8 20 -8 11 0 20 4 20 8 0 4 -9 8 -20 8 -11 0 -20
-4 -20 -8z"/>
<path d="M330 495 c0 -13 31 -36 41 -33 7 2 0 12 -15 21 -14 10 -26 15 -26 12z"/>
<path d="M325 440 c4 -6 11 -8 16 -5 14 9 11 15 -7 15 -8 0 -12 -5 -9 -10z"/>
<path d="M431 388 c0 -9 -4 -25 -7 -35 -5 -14 -4 -15 5 -7 7 7 11 22 8 35 -2
13 -5 16 -6 7z"/>
<path d="M320 345 c0 -8 5 -15 10 -15 6 0 10 7 10 15 0 8 -4 15 -10 15 -5 0
-10 -7 -10 -15z"/>
<path d="M1760 326 c0 -2 9 -6 20 -9 11 -3 18 -1 14 4 -5 9 -34 13 -34 5z"/>
<path d="M9305 240 c28 -12 47 -12 40 0 -3 6 -18 10 -33 9 -24 0 -25 -1 -7 -9z"/>
<path d="M8725 200 c-7 -12 2 -30 16 -30 12 0 12 27 0 35 -5 3 -12 1 -16 -5z"/>
<path d="M8772 180 c0 -14 2 -19 5 -12 2 6 2 18 0 25 -3 6 -5 1 -5 -13z"/>
<path d="M3160 170 c0 -5 5 -10 11 -10 5 0 7 5 4 10 -3 6 -8 10 -11 10 -2 0
-4 -4 -4 -10z"/>
</g>
</svg>
